<?xml version="1.0" encoding="utf-8"?>
<!-- Generator: Adobe Illustrator 25.3.0, SVG Export Plug-In . SVG Version: 6.00 Build 0)  -->
<svg version="1.1" id="Layer_1" xmlns="http://www.w3.org/2000/svg" xmlns:xlink="http://www.w3.org/1999/xlink" x="0px" y="0px"
	 viewBox="0 0 24 24" style="enable-background:new 0 0 24 24;" xml:space="preserve">
<style type="text/css">
	.st0{fill:none;stroke:#FFFFFF;stroke-width:1.5;stroke-linecap:round;stroke-linejoin:round;}
</style>
<path class="st0" d="M21,7.4v9.3c0,0.2-0.1,0.4-0.3,0.5l-8.4,4.7c-0.2,0.1-0.4,0.1-0.6,0l-8.4-4.7C3.1,17.1,3,16.9,3,16.6l0-9.3
	c0-0.2,0.1-0.4,0.3-0.5l8.4-4.7c0.2-0.1,0.4-0.1,0.6,0l8.4,4.7C20.9,6.9,21,7.1,21,7.4z"/>
<path class="st0" d="M3.5,7.3l8.2,4.5c0.2,0.1,0.4,0.1,0.6,0l8.2-4.6"/>
<path class="st0" d="M12,21v-9"/>
</svg>
